<svg width="100" height="100" viewBox="0 0 100 100" fill="none" xmlns="http://www.w3.org/2000/svg">
<rect width="100" height="100" fill="white"/>
<path d="M48.512 26.0531C61.7859 25.17 73.251 35.4018 74.1174 48.9047C74.9828 62.4076 64.9233 74.0674 51.6487 74.9467C38.3775 75.8257 26.918 65.5953 26.052 52.0951C25.1859 38.595 35.241 26.9363 48.512 26.0531ZM48.967 37.6313C42.5312 37.8019 37.45 43.5424 37.6321 50.4369C37.8142 57.3312 43.1898 62.7549 49.6243 62.5356C56.0264 62.3171 61.0579 56.5919 60.8762 49.7318C60.6951 42.872 55.3698 37.4616 48.967 37.6313Z" fill="black"/>
<path d="M74.2718 26C78.7756 26.1178 83.7358 26.0168 88.2706 26.0165C90.362 29.9197 91.9493 34.1108 92.9879 38.474C95.8667 50.6454 94.2493 64.1791 88.2555 74.9998L85.8063 74.9958L74.2934 74.9998C75.5905 73.3207 76.798 71.7223 77.8584 69.8482C85.9697 55.514 84.2685 38.6043 74.2718 26Z" fill="black"/>
<path d="M12.1248 26C16.5211 26.1397 21.6689 26.0508 26.1025 26.0085C24.8877 27.5648 23.8062 28.9964 22.7864 30.7217C14.826 44.1911 15.8244 60.8842 24.8351 73.3816L26.0832 74.9941L12.1298 74.9998C10.1509 71.3523 8.62578 67.4418 7.59336 63.3684C4.40789 50.7612 6.03909 37.3096 12.1248 26Z" fill="black"/>
</svg>
